<svg id="Calque_1" data-name="Calque 1" xmlns="http://www.w3.org/2000/svg" xmlns:xlink="http://www.w3.org/1999/xlink" viewBox="0 0 125.73 231.2"><defs><style>.cls-1{fill:none;}.cls-2{clip-path:url(#clip-path);}.cls-3{fill:#589cc7;}</style><clipPath id="clip-path" transform="translate(-36.95 -18)"><rect class="cls-1" x="36.95" y="18" width="125.73" height="231.2"/></clipPath></defs><title>resto</title><g class="cls-2"><path class="cls-3" d="M139.94,80c0-21.77-18-39.43-40.1-39.43S59.74,58.26,59.74,80s18,39.42,40.1,39.42,40.1-17.65,40.1-39.42m22.74-.26a61.29,61.29,0,0,1-4,21.68c-8.26,24.06-62.8,147.74-62.8,147.74S44.49,114.32,40,98.88A60.74,60.74,0,0,1,37,79.77C37,45.68,65.11,18,99.84,18s62.85,27.69,62.85,61.78" transform="translate(-36.95 -18)"/><path class="cls-3" d="M123.43,99.55h0s-12.71-12.08-14-13.24c-.78-.21-5.29-2.08-5.37-5.57A11.92,11.92,0,0,1,113,76.64h0a8,8,0,0,0,5.27-1.77c.11-.08.35-.31.35-.31L129,62.34l-1.25-1.17L115.1,73.72l-1.49-1.4,13-12.2-1.1-1L112.43,71.36l-1.24-1.16,13.12-12.27-1.21-1.13L110,69.08l-1.47-1.38,13.55-11.87-1.14-1.07-12.48,9.1s-.45.36-.62.5a6.9,6.9,0,0,0-2.2,5.86,10.68,10.68,0,0,1-2.28,6.13c-23.25-21.29-32-19-32-19l-.7.67,25.3,23.73L76.19,100.19h0l0,0a2.67,2.67,0,0,0,0,4,3.13,3.13,0,0,0,4.22,0l0,0h0l19.73-18.46,3.18,3,15.86,14.85h0s0,0,0,0a3.14,3.14,0,0,0,4.24,0,2.66,2.66,0,0,0,0-4l0,0" transform="translate(-36.95 -18)"/></g></svg>